<?xml version="1.0" encoding="utf-8"?>
<!-- Generator: Adobe Illustrator 16.0.0, SVG Export Plug-In . SVG Version: 6.00 Build 0)  -->
<!DOCTYPE svg PUBLIC "-//W3C//DTD SVG 1.1//EN" "http://www.w3.org/Graphics/SVG/1.1/DTD/svg11.dtd">
<svg version="1.1" id="圖層_1" xmlns="http://www.w3.org/2000/svg" xmlns:xlink="http://www.w3.org/1999/xlink" x="0px" y="0px"
	 width="590.135px" height="91.007px" viewBox="0 0 590.135 91.007" enable-background="new 0 0 590.135 91.007"
	 xml:space="preserve">
<g>
	<path fill="#FFFFFF" d="M152.374,1.215h38.639v16.889h-18.712v21.264h16.403v16.039h-16.403v34.386h-19.927V1.215z"/>
	<path fill="#FFFFFF" d="M196.234,1.215h20.048v88.577h-20.048V1.215z"/>
	<path fill="#FFFFFF" d="M222.843,44.958C222.843,9.235,234.021,0,250.303,0c17.497,0,25.151,12.029,25.151,32.807h-18.226
		c-0.243-12.15-2.43-16.039-7.169-16.039c-6.197,0-7.776,6.926-7.776,28.189c0,22.113,1.58,29.161,8.02,29.161
		c5.346,0,6.926-5.468,6.926-15.188v-2.552h-7.412V41.677h25.638v17.74c0,21.871-10.328,31.47-25.638,31.47
		C228.918,90.886,222.843,73.754,222.843,44.958z"/>
	<path fill="#FFFFFF" d="M282.135,1.215h19.684v35.358h11.057V1.215h19.928v88.577h-19.928V53.341h-11.057v36.451h-19.684V1.215z"/>
	<path fill="#FFFFFF" d="M349.931,18.226h-11.664V1.215h43.499v17.011h-12.15v71.566h-19.685V18.226z"/>
	<path fill="#4C00FF" d="M386.866,1.215H407.4l12.151,49.453h0.851l-0.973-26.367V1.215h17.618v88.577h-20.291l-12.516-48.966
		h-0.729l0.972,25.394v23.572h-17.618V1.215z"/>
	<path fill="#4C00FF" d="M445.063,1.215h38.761v16.889h-19.806v18.59h17.74v15.674h-17.74v20.535h19.806v16.889h-38.761V1.215z"/>
	<path fill="#4C00FF" d="M487.952,61.846h16.768c0,11.058,2.673,14.581,7.169,14.581s6.075-3.523,6.075-8.991
		c0-7.655-3.767-10.693-12.271-15.796c-8.385-4.982-17.011-11.786-17.011-27.46c0-16.524,9.72-24.058,23.571-24.058
		c15.311,0,24.059,8.02,24.059,27.217h-17.011c0.121-9.599-1.822-12.879-6.197-12.879c-4.01,0-5.589,3.281-5.589,8.384
		c0,7.655,3.402,10.328,11.057,14.824c10.085,6.075,18.591,13.244,18.591,28.189c0,17.011-9.234,25.151-24.544,25.151
		C494.878,91.007,487.952,79.343,487.952,61.846z"/>
	<path fill="#4C00FF" d="M540.925,61.846h16.769c0,11.058,2.673,14.581,7.169,14.581c4.495,0,6.075-3.523,6.075-8.991
		c0-7.655-3.767-10.693-12.272-15.796c-8.384-4.982-17.011-11.786-17.011-27.46c0-16.524,9.721-24.058,23.572-24.058
		c15.31,0,24.058,8.02,24.058,27.217h-17.011c0.122-9.599-1.822-12.879-6.196-12.879c-4.01,0-5.59,3.281-5.59,8.384
		c0,7.655,3.402,10.328,11.058,14.824c10.085,6.075,18.59,13.244,18.59,28.189c0,17.011-9.234,25.151-24.544,25.151
		C547.852,91.007,540.925,79.343,540.925,61.846z"/>
</g>
<path fill-rule="evenodd" clip-rule="evenodd" fill="#4C00FF" d="M135,39.692v16h-5v-16H135z M113.021,19.692h-0.675
	c-2.394,0-4.347,2.16-4.347,4.554v15.446h-4.059l-6.649,16H108v16.016c0,2.395,1.953,3.984,4.347,3.984h0.675
	c2.395,0,3.979-1.588,3.979-3.984V24.246C117,21.851,115.417,19.692,113.021,19.692z M123.81,28.692h-0.674
	c-2.395,0-4.136,1.966-4.136,4.358v29.853c0,2.394,1.743,4.789,4.136,4.789h0.674c2.394,0,4.19-2.393,4.19-4.789V33.05
	C128,30.656,126.206,28.692,123.81,28.692z M0,55.692h5v-16H0V55.692z M28,55.692h23v-16H28V55.692z M21.977,19.692h-0.675
	c-2.396,0-4.302,2.159-4.302,4.554v47.462c0,2.396,1.907,3.984,4.302,3.984h0.675c2.394,0,4.023-1.59,4.023-3.984V24.246
	C26,21.852,24.371,19.692,21.977,19.692z M11.188,28.692h-0.674C8.117,28.692,6,30.656,6,33.05v29.853
	c0,2.396,2.119,4.789,4.513,4.789h0.674c2.393,0,4.813-2.396,4.813-4.789V33.05C16,30.658,13.582,28.692,11.188,28.692z M50,89.692
	h20v-34h22l7-16H70v-22h13.5l5.513-16H50V89.692z"/>
</svg>
